<svg version="1.1" id="Uploaded to svgrepo.com" xmlns="http://www.w3.org/2000/svg" xmlns:xlink="http://www.w3.org/1999/xlink" x="0px" y="0px"
	 width="32px" height="32px" viewBox="0 0 32 32" style="enable-background:new 0 0 32 32;" xml:space="preserve">
<style type="text/css">
	.duotone_twee{fill:#555D5E;}
	.duotone_een{fill:#0B1719;}
	.st0{fill:#FFF9F9;}
	.st1{fill:#808080;}
</style>
<g>
	<path class="duotone_een" d="M24.232,8.626l-9.192,9.192c-0.194,0.194-0.513,0.194-0.707,0l-2.828-2.828
		c-0.194-0.194-0.513-0.194-0.707,0l-0.707,0.707c-0.194,0.194-0.194,0.513,0,0.707l4.243,4.243c0.194,0.194,0.513,0.194,0.707,0
		L25.646,10.04c0.194-0.194,0.194-0.513,0-0.707l-0.707-0.707C24.745,8.431,24.427,8.431,24.232,8.626z"/>
	<path class="duotone_twee" d="M15.747,21.354c-0.586,0.586-1.536,0.585-2.121,0c-0.038-0.038-0.192-0.192-4.243-4.243
		c-0.586-0.585-0.586-1.536,0-2.121l0.707-0.707c0.585-0.585,1.536-0.585,2.121,0l2.475,2.475L22,9.444V8.5
		C22,8.225,21.775,8,21.5,8h-15C6.225,8,6,8.225,6,8.5v15C6,23.775,6.225,24,6.5,24h15c0.275,0,0.5-0.225,0.5-0.5v-8.399
		L15.747,21.354z"/>
</g>
</svg>