<svg width="145" height="39" viewBox="0 0 145 39" fill="none" xmlns="http://www.w3.org/2000/svg">
<path fill-rule="evenodd" clip-rule="evenodd" d="M143.855 19.5204C144.486 19.5204 144.997 18.9971 144.997 18.3516V14.9869C144.997 14.3414 144.486 13.818 143.855 13.818H141.354V10.3698C141.354 9.5863 140.616 9.02467 139.885 9.25063L136.353 10.3397C135.871 10.4885 135.541 10.9432 135.541 11.4589V13.818H134.056C133.425 13.818 132.914 14.3414 132.914 14.9869V18.3516C132.914 18.9971 133.425 19.5204 134.056 19.5204H135.541V24.8642C135.541 27.7095 136.241 29.6819 137.642 30.7818C138.925 31.7508 141.04 32.1089 143.989 31.8562C144.565 31.8068 144.997 31.3053 144.997 30.714V27.6037C144.997 26.9336 144.447 26.409 143.793 26.3981C143.098 26.3865 142.565 26.3175 142.195 26.1911C141.635 25.9999 141.354 25.5098 141.354 24.7208V19.5204H143.855ZM93.9911 15.3244C92.8237 13.9854 91.2245 13.3159 89.1932 13.3159C87.0219 13.3159 85.3293 14.0811 84.1151 15.6113C83.1346 14.0811 81.6404 13.3159 79.6325 13.3159C77.5545 13.3159 75.9785 14.0451 74.9045 15.5037V14.9869C74.9045 14.3414 74.3936 13.818 73.7632 13.818H70.2325C69.602 13.818 69.091 14.3414 69.091 14.9869V30.5813C69.091 31.2268 69.602 31.7501 70.2325 31.7501H73.7632C74.3936 31.7501 74.9045 31.2268 74.9045 30.5813V21.9593C74.9045 21.0267 75.1031 20.2974 75.5 19.7715C75.9202 19.2215 76.5273 18.9467 77.3211 18.9467C78.7919 18.9467 79.5274 19.7834 79.5274 21.4571V30.5813C79.5274 31.2268 80.0384 31.7501 80.6687 31.7501H84.1996C84.8299 31.7501 85.3409 31.2268 85.3409 30.5813V21.9593C85.3409 21.0267 85.5393 20.2974 85.9362 19.7715C86.3565 19.2215 86.9636 18.9467 87.7573 18.9467C89.2049 18.9467 89.9286 19.7834 89.9286 21.4571V30.5813C89.9286 31.2268 90.4396 31.7501 91.0701 31.7501H94.6358C95.2661 31.7501 95.7773 31.2268 95.7773 30.5813V20.7757C95.7773 18.4564 95.1818 16.6393 93.9911 15.3244ZM112.383 13.818C111.753 13.818 111.242 14.3414 111.242 14.9869V15.4678C110.051 14.0332 108.394 13.3159 106.269 13.3159C103.934 13.3159 101.973 14.2246 100.385 16.0417C98.8212 17.8348 98.0391 20.0823 98.0391 22.7841C98.0391 25.4859 98.8212 27.7453 100.385 29.5625C101.973 31.3557 103.934 32.2523 106.269 32.2523C108.394 32.2523 110.051 31.535 111.242 30.1004V30.5813C111.242 31.2268 111.753 31.7501 112.383 31.7501H115.914C116.544 31.7501 117.056 31.2268 117.056 30.5813V14.9869C117.056 14.3414 116.544 13.818 115.914 13.818H112.383ZM107.565 26.6933C106.467 26.6933 105.58 26.3346 104.903 25.6174C104.226 24.9001 103.888 23.9557 103.888 22.7841C103.888 21.6125 104.226 20.6681 104.903 19.9508C105.58 19.2336 106.467 18.8749 107.565 18.8749C108.662 18.8749 109.549 19.2336 110.226 19.9508C110.904 20.6681 111.242 21.6125 111.242 22.7841C111.242 23.9557 110.904 24.9001 110.226 25.6174C109.549 26.3346 108.662 26.6933 107.565 26.6933ZM126.239 17.1534C126.566 15.9818 127.22 15.0733 128.201 14.4277C128.866 13.9899 129.584 13.7005 130.357 13.5597C130.977 13.4465 131.493 13.9827 131.493 14.6283V18.6905C131.493 19.4087 130.86 19.9428 130.161 20.0019C129.341 20.071 128.57 20.341 127.85 20.8116C126.776 21.5289 126.239 22.7005 126.239 24.3262V30.5813C126.239 31.2268 125.728 31.7501 125.098 31.7501H121.567C120.937 31.7501 120.426 31.2268 120.426 30.5813V14.9869C120.426 14.3414 120.937 13.818 121.567 13.818H125.098C125.728 13.818 126.239 14.3414 126.239 14.9869V17.1534ZM41.6335 13.8181C41.003 13.8181 40.4921 14.3414 40.4921 14.9869V15.4679C39.3014 14.0334 37.6437 13.316 35.5191 13.316C33.1843 13.316 31.2231 14.2246 29.6355 16.0417C28.0712 17.835 27.2891 20.0825 27.2891 22.7842C27.2891 25.4859 28.0712 27.7454 29.6355 29.5625C31.2231 31.3558 33.1843 32.2524 35.5191 32.2524C37.6437 32.2524 39.3014 31.5351 40.4921 30.1004V30.5814C40.4921 31.227 41.003 31.7503 41.6335 31.7503H45.1643C45.7946 31.7503 46.3056 31.227 46.3056 30.5814V14.9869C46.3056 14.3414 45.7946 13.8181 45.1643 13.8181H41.6335ZM36.8149 26.6934C35.7175 26.6934 34.8303 26.3348 34.1533 25.6175C33.4761 24.9002 33.1377 23.9558 33.1377 22.7842C33.1377 21.6127 33.4761 20.6682 34.1533 19.951C34.8303 19.2336 35.7175 18.8749 36.8149 18.8749C37.9122 18.8749 38.7994 19.2336 39.4764 19.951C40.1536 20.6682 40.4921 21.6127 40.4921 22.7842C40.4921 23.9558 40.1536 24.9002 39.4764 25.6175C38.7994 26.3348 37.9122 26.6934 36.8149 26.6934ZM61.6525 13.8181C61.1362 13.8181 60.6844 14.1729 60.5503 14.6834L58.0459 24.2188L54.7755 14.6026C54.6158 14.1329 54.1834 13.8181 53.6977 13.8181H49.7014C48.8884 13.8181 48.3361 14.6638 48.6465 15.4333L54.9991 31.1764C54.6021 31.9893 54.0885 32.5512 53.4581 32.8621C53.0386 33.0689 52.4847 33.2069 51.7964 33.276C51.169 33.3392 50.6565 33.8516 50.6565 34.4971V37.8035C50.6565 38.4295 51.1387 38.9498 51.7498 38.935C53.9645 38.8815 55.8065 38.3396 57.2754 37.3092C58.9797 36.1137 60.299 34.1652 61.2329 31.4634L66.6945 15.3707C66.9522 14.6111 66.4016 13.8181 65.6164 13.8181H61.6525Z" fill="#1E1E1E"/>
<path fill-rule="evenodd" clip-rule="evenodd" d="M5.05758 0.167969C2.50598 0.167969 0.4375 2.28664 0.4375 4.90014V27.0371C0.4375 29.6505 2.50598 31.7692 5.05758 31.7692C7.6092 31.7692 9.67768 29.6505 9.67768 27.0371V21.348H16.2158C21.9195 21.348 26.5433 16.6121 26.5433 10.7699C26.5433 4.92778 21.9195 0.191789 16.2158 0.191789H5.52406C5.37065 0.176036 5.21504 0.167969 5.05758 0.167969Z" fill="#FF7643"/>
<path fill-rule="evenodd" clip-rule="evenodd" d="M9.69521 21.3497V27.0366C9.69521 29.6502 7.62671 31.7688 5.07511 31.7688C3.79354 31.7688 2.63382 31.2343 1.79688 30.3712C2.36838 25.2624 5.6167 21.3477 9.53833 21.3477C9.59074 21.3477 9.64303 21.3483 9.69521 21.3497Z" fill="#1E1E1E"/>
</svg>
