<svg width="6" height="9" viewBox="0 0 6 9" fill="none" xmlns="http://www.w3.org/2000/svg">
<path d="M5.26174 5.09182L1.92841 8.42515C1.77149 8.58207 1.55866 8.67023 1.33674 8.67023C1.11482 8.67023 0.901996 8.58207 0.745076 8.42515C0.588156 8.26823 0.5 8.05541 0.5 7.83349C0.5 7.61157 0.588156 7.39874 0.745076 7.24182L3.49508 4.50015L0.745076 1.75849C0.588156 1.60157 0.5 1.38874 0.5 1.16682C0.5 1.05694 0.521642 0.948132 0.563693 0.846614C0.605743 0.745095 0.667377 0.652853 0.745076 0.575155C0.822775 0.497456 0.915016 0.435822 1.01653 0.393772C1.11805 0.351721 1.22686 0.330078 1.33674 0.330078C1.55866 0.330078 1.77149 0.418235 1.92841 0.575155L5.26174 3.90849C5.33985 3.98596 5.40184 4.07812 5.44415 4.17967C5.48646 4.28122 5.50824 4.39014 5.50824 4.50015C5.50824 4.61016 5.48646 4.71909 5.44415 4.82064C5.40184 4.92218 5.33985 5.01435 5.26174 5.09182Z" fill="white"/>
</svg>
