<svg width="17" height="20" viewBox="0 0 17 20" fill="none" xmlns="http://www.w3.org/2000/svg">
<path d="M17 15V12.47C17.03 11.5755 16.8045 10.691 16.35 9.92C16.0457 9.44064 15.6393 9.03432 15.16 8.73C14.5219 8.33596 13.8222 8.052 13.09 7.89C12.41 7.71 11.78 7.59 11.29 7.44C10.8684 7.30439 10.4372 7.20076 9.99998 7.13V3C9.99998 2.20435 9.68391 1.44129 9.1213 0.87868C8.55869 0.316071 7.79563 0 6.99998 0C6.20433 0 5.44127 0.316071 4.87866 0.87868C4.31605 1.44129 3.99998 2.20435 3.99998 3V8.59L2.28998 10.29C1.85065 10.7645 1.51065 11.3221 1.28998 11.93C1.00724 12.6361 0.861315 13.3894 0.859981 14.15C0.849636 14.8096 0.971753 15.4645 1.2191 16.076C1.46645 16.6875 1.834 17.2431 2.29998 17.71L3.99998 19.41C4.37333 19.7856 4.8804 19.9978 5.40998 20H13C14.0608 20 15.0783 19.5786 15.8284 18.8284C16.5786 18.0783 17 17.0609 17 16V15ZM13 18H5.40998L3.70998 16.29C3.42593 16.0125 3.20277 15.679 3.0547 15.3105C2.90664 14.9421 2.83692 14.5469 2.84998 14.15C2.84654 13.639 2.94513 13.1324 3.13998 12.66C3.26601 12.3091 3.45967 11.9863 3.70998 11.71L3.99998 11.41V13C3.99998 13.2652 4.10534 13.5196 4.29288 13.7071C4.48041 13.8946 4.73476 14 4.99998 14C5.2652 14 5.51955 13.8946 5.70709 13.7071C5.89462 13.5196 5.99998 13.2652 5.99998 13V9V3C5.99998 2.73478 6.10534 2.48043 6.29287 2.29289C6.48041 2.10536 6.73477 2 6.99998 2C7.2652 2 7.51955 2.10536 7.70709 2.29289C7.89462 2.48043 7.99998 2.73478 7.99998 3V8C7.9953 8.04655 7.9953 8.09345 7.99998 8.14C8.00674 8.22175 8.02353 8.30235 8.04998 8.38V8.45C8.09357 8.54454 8.15085 8.63215 8.21998 8.71C8.32155 8.81151 8.44379 8.88995 8.57838 8.93999C8.71298 8.99003 8.85677 9.0105 8.99998 9C9.58834 9.03598 10.1697 9.14687 10.73 9.33C11.3 9.5 11.87 9.62 12.4 9.75C13.0938 9.86853 13.7509 10.1457 14.32 10.56C14.5365 10.7391 14.7049 10.9694 14.81 11.23C14.9558 11.6264 15.0204 12.0481 15 12.47V15V16C15 16.5304 14.7893 17.0391 14.4142 17.4142C14.0391 17.7893 13.5304 18 13 18Z" fill="white"/>
</svg>
