<svg width="40" height="39" viewBox="0 0 40 39" fill="none" xmlns="http://www.w3.org/2000/svg">
<path d="M20.1319 0.914062C9.53951 0.914062 0.921875 9.29879 0.921875 19.6049V27.3486C0.921875 29.2625 2.64502 30.8195 4.76389 30.8195H6.6849C7.19438 30.8195 7.68299 30.6225 8.04325 30.272C8.40351 29.9215 8.6059 29.4461 8.6059 28.9504V19.3377C8.6059 18.8419 8.40351 18.3665 8.04325 18.016C7.68299 17.6655 7.19438 17.4686 6.6849 17.4686H4.94062C6.0087 10.2352 12.4057 4.65224 20.1319 4.65224C27.8582 4.65224 34.2552 10.2352 35.3233 17.4686H33.579C33.0695 17.4686 32.5809 17.6655 32.2206 18.016C31.8604 18.3665 31.658 18.8419 31.658 19.3377V30.8195C31.658 32.8811 29.9348 34.5576 27.816 34.5576H23.974V32.6886H16.2899V38.2958H27.816C32.0537 38.2958 35.5 34.9427 35.5 30.8195C37.6189 30.8195 39.342 29.2625 39.342 27.3486V19.6049C39.342 9.29879 30.7244 0.914062 20.1319 0.914062Z" fill="white"/>
</svg>
