<svg width="51" height="38" viewBox="0 0 51 38" fill="none" xmlns="http://www.w3.org/2000/svg">
<path d="M49.1809 26.0139H47.9449V18.1214C47.9449 17.1942 47.551 16.3034 46.8557 15.6463L39.1384 8.3525C38.4431 7.6954 37.5007 7.32304 36.5196 7.32304H33.1128V3.8185C33.1128 1.88371 31.4519 0.313965 29.4048 0.313965H9.62863C7.58149 0.313965 5.9206 1.88371 5.9206 3.8185V7.32304H1.59457C1.25466 7.32304 0.976562 7.58589 0.976562 7.90713V9.07531C0.976562 9.39656 1.25466 9.6594 1.59457 9.6594H22.6067C22.9466 9.6594 23.2247 9.92225 23.2247 10.2435V11.4117C23.2247 11.7329 22.9466 11.9958 22.6067 11.9958H4.06659C3.72668 11.9958 3.44858 12.2586 3.44858 12.5799V13.748C3.44858 14.0693 3.72668 14.3321 4.06659 14.3321H20.1347C20.4746 14.3321 20.7527 14.595 20.7527 14.9162V16.0844C20.7527 16.4056 20.4746 16.6685 20.1347 16.6685H1.59457C1.25466 16.6685 0.976562 16.9313 0.976562 17.2526V18.4208C0.976562 18.742 1.25466 19.0048 1.59457 19.0048H17.6627C18.0026 19.0048 18.2807 19.2677 18.2807 19.5889V20.7571C18.2807 21.0784 18.0026 21.3412 17.6627 21.3412H5.9206V30.6866C5.9206 34.5562 9.24238 37.6957 13.3367 37.6957C17.4309 37.6957 20.7527 34.5562 20.7527 30.6866H30.6408C30.6408 34.5562 33.9626 37.6957 38.0569 37.6957C42.1511 37.6957 45.4729 34.5562 45.4729 30.6866H49.1809C49.8607 30.6866 50.417 30.161 50.417 29.5185V27.1821C50.417 26.5396 49.8607 26.0139 49.1809 26.0139ZM13.3367 34.1912C11.2895 34.1912 9.62863 32.6214 9.62863 30.6866C9.62863 28.7518 11.2895 27.1821 13.3367 27.1821C15.3838 27.1821 17.0447 28.7518 17.0447 30.6866C17.0447 32.6214 15.3838 34.1912 13.3367 34.1912ZM38.0569 34.1912C36.0097 34.1912 34.3488 32.6214 34.3488 30.6866C34.3488 28.7518 36.0097 27.1821 38.0569 27.1821C40.104 27.1821 41.7649 28.7518 41.7649 30.6866C41.7649 32.6214 40.104 34.1912 38.0569 34.1912ZM44.2369 19.0048H33.1128V10.8276H36.5196L44.2369 18.1214V19.0048Z" fill="white"/>
</svg>
