<svg width="20" height="18" viewBox="0 0 20 18" fill="none" xmlns="http://www.w3.org/2000/svg">
<path d="M14.44 0.220177C13.0831 0.219563 11.7734 0.717838 10.76 1.62018C10.551 1.80712 10.2804 1.91047 10 1.91047C9.71959 1.91047 9.44901 1.80712 9.24 1.62018C8.44029 0.908361 7.45177 0.443042 6.39359 0.28031C5.33541 0.117579 4.25276 0.26438 3.27612 0.70302C2.29949 1.14166 1.47057 1.85341 0.889283 2.75248C0.307999 3.65155 -0.000838041 4.69956 1.70795e-06 5.77018C1.70795e-06 10.5202 7.3 16.0802 9.42 17.6002C9.58936 17.7208 9.7921 17.7856 10 17.7856C10.2079 17.7856 10.4106 17.7208 10.58 17.6002C12.7 16.0802 20 10.5202 20 5.77018C19.9974 4.29731 19.4104 2.88567 18.368 1.84513C17.3256 0.804585 15.9129 0.220174 14.44 0.220177ZM10 15.5402C5.93 12.5402 2 8.45018 2 5.77018C2.00271 5.0868 2.20206 4.41865 2.57423 3.8455C2.94641 3.27236 3.47568 2.81845 4.09885 2.53797C4.72202 2.25749 5.41274 2.1623 6.08855 2.26377C6.76435 2.36523 7.39667 2.65906 7.91 3.11018C8.48427 3.6253 9.22855 3.9102 10 3.9102C10.7715 3.9102 11.5157 3.6253 12.09 3.11018C12.6033 2.65906 13.2356 2.36523 13.9115 2.26377C14.5873 2.1623 15.278 2.25749 15.9012 2.53797C16.5243 2.81845 17.0536 3.27236 17.4258 3.8455C17.7979 4.41865 17.9973 5.0868 18 5.77018C18 8.45018 14.07 12.5202 10 15.5402Z" fill="#444444"/>
</svg>
