<svg width="18" height="15" viewBox="0 0 18 15" fill="none" xmlns="http://www.w3.org/2000/svg">
<path d="M0 1.5C0 1.23478 0.105357 0.98043 0.292893 0.792893C0.48043 0.605357 0.734784 0.5 1 0.5H17C17.2652 0.5 17.5196 0.605357 17.7071 0.792893C17.8946 0.98043 18 1.23478 18 1.5C18 1.76522 17.8946 2.01957 17.7071 2.20711C17.5196 2.39464 17.2652 2.5 17 2.5H1C0.734784 2.5 0.48043 2.39464 0.292893 2.20711C0.105357 2.01957 0 1.76522 0 1.5ZM17 6.5H1C0.734784 6.5 0.48043 6.60536 0.292893 6.79289C0.105357 6.98043 0 7.23478 0 7.5C0 7.76522 0.105357 8.01957 0.292893 8.20711C0.48043 8.39464 0.734784 8.5 1 8.5H17C17.2652 8.5 17.5196 8.39464 17.7071 8.20711C17.8946 8.01957 18 7.76522 18 7.5C18 7.23478 17.8946 6.98043 17.7071 6.79289C17.5196 6.60536 17.2652 6.5 17 6.5ZM17 12.5H1C0.734784 12.5 0.48043 12.6054 0.292893 12.7929C0.105357 12.9804 0 13.2348 0 13.5C0 13.7652 0.105357 14.0196 0.292893 14.2071C0.48043 14.3946 0.734784 14.5 1 14.5H17C17.2652 14.5 17.5196 14.3946 17.7071 14.2071C17.8946 14.0196 18 13.7652 18 13.5C18 13.2348 17.8946 12.9804 17.7071 12.7929C17.5196 12.6054 17.2652 12.5 17 12.5Z" fill="white"/>
</svg>
