<svg width="21" height="21" viewBox="0 0 21 21" fill="none" xmlns="http://www.w3.org/2000/svg">
<path d="M20.4367 12.0808C20.4547 11.9535 20.4459 11.8239 20.4108 11.7001C20.3757 11.5762 20.3151 11.4608 20.2327 11.3608C20.1335 11.2439 20.0085 11.1508 19.8671 11.0884C19.7257 11.026 19.5717 10.9961 19.4167 11.0008H10.2371V2.00081C10.247 1.91107 10.247 1.82055 10.2371 1.73081C10.1729 1.50009 10.0264 1.29958 9.82432 1.16565C9.62222 1.03172 9.37785 0.973237 9.13554 1.00081C7.23575 1.21798 5.43651 1.95451 3.94325 3.12632C2.44999 4.29812 1.32288 5.85798 0.690603 7.6278C0.0583269 9.39762 -0.0536383 11.3061 0.367491 13.1353C0.78862 14.9645 1.72587 16.6408 3.07224 17.9728C4.41862 19.3047 6.11985 20.2386 7.98172 20.6679C9.84359 21.0973 11.7911 21.0046 13.6018 20.4007C15.4126 19.7967 17.0136 18.7057 18.2222 17.2522C19.4307 15.7988 20.1981 14.0414 20.4367 12.1808C20.4367 12.1808 20.4367 12.1808 20.4367 12.1008V12.0808ZM10.2371 19.0008C8.23376 19.0249 6.29142 18.3255 4.78019 17.0359C3.26895 15.7463 2.29445 13.9566 2.04238 12.0079C1.79031 10.0593 2.27829 8.08777 3.41334 6.46912C4.54838 4.85048 6.25115 3.69783 8.19719 3.23081V12.0008C8.19641 12.1324 8.22214 12.2629 8.2729 12.3847C8.32365 12.5066 8.39844 12.6174 8.49297 12.7108C8.58828 12.8035 8.7013 12.8768 8.82557 12.9266C8.94984 12.9763 9.08291 13.0016 9.21714 13.0008H18.1214C17.6698 14.7154 16.6508 16.2347 15.224 17.3205C13.7972 18.4063 12.0433 18.9973 10.2371 19.0008ZM13.297 9.00081H18.6415C18.7929 8.99478 18.9411 8.95575 19.0751 8.88655C19.2092 8.81736 19.3259 8.71975 19.4167 8.60081C19.5141 8.48348 19.583 8.34603 19.6183 8.1988C19.6537 8.05156 19.6545 7.89839 19.6207 7.75081C19.2772 6.28868 18.5212 4.95075 17.439 3.88979C16.3569 2.82883 14.9923 2.08762 13.501 1.75081C13.243 1.69334 12.9724 1.73637 12.7462 1.87081C12.5958 1.96055 12.4717 2.08692 12.3859 2.23762C12.3001 2.38832 12.2556 2.55823 12.2566 2.73081V8.00081C12.2566 8.13383 12.2836 8.26552 12.3362 8.38817C12.3887 8.51082 12.4656 8.62196 12.5625 8.71508C12.6594 8.80821 12.7743 8.88145 12.9004 8.93051C13.0265 8.97957 13.1613 9.00347 13.297 9.00081ZM17.2034 7.00081H14.3169V4.15081C15.5921 4.74376 16.619 5.7506 17.2238 7.00081H17.2034Z" fill="#2DA55F"/>
</svg>
