<svg width="20" height="21" viewBox="0 0 20 21" fill="none" xmlns="http://www.w3.org/2000/svg">
<path d="M10 4.5C9.20888 4.5 8.43552 4.7346 7.77772 5.17412C7.11993 5.61365 6.60724 6.23836 6.30449 6.96927C6.00174 7.70017 5.92252 8.50444 6.07686 9.28036C6.2312 10.0563 6.61217 10.769 7.17158 11.3284C7.73099 11.8878 8.44372 12.2688 9.21964 12.4231C9.99557 12.5775 10.7998 12.4983 11.5307 12.1955C12.2616 11.8928 12.8864 11.3801 13.3259 10.7223C13.7654 10.0645 14 9.29113 14 8.5C14 7.43913 13.5786 6.42172 12.8284 5.67157C12.0783 4.92143 11.0609 4.5 10 4.5ZM10 10.5C9.60444 10.5 9.21776 10.3827 8.88886 10.1629C8.55997 9.94318 8.30362 9.63082 8.15225 9.26537C8.00087 8.89991 7.96126 8.49778 8.03843 8.10982C8.1156 7.72186 8.30609 7.36549 8.58579 7.08579C8.8655 6.80608 9.22186 6.6156 9.60982 6.53843C9.99779 6.46126 10.3999 6.50087 10.7654 6.65224C11.1308 6.80362 11.4432 7.05996 11.6629 7.38886C11.8827 7.71776 12 8.10444 12 8.5C12 9.03043 11.7893 9.53914 11.4142 9.91421C11.0391 10.2893 10.5304 10.5 10 10.5ZM10 0.5C8.02219 0.5 6.08879 1.08649 4.4443 2.1853C2.79981 3.28412 1.51809 4.8459 0.761209 6.67317C0.00433284 8.50043 -0.193701 10.5111 0.192152 12.4509C0.578004 14.3907 1.53041 16.1725 2.92894 17.5711C4.32746 18.9696 6.10929 19.922 8.0491 20.3079C9.98891 20.6937 11.9996 20.4957 13.8268 19.7388C15.6541 18.9819 17.2159 17.7002 18.3147 16.0557C19.4135 14.4112 20 12.4778 20 10.5C20 9.18678 19.7413 7.88642 19.2388 6.67317C18.7363 5.45991 17.9997 4.35752 17.0711 3.42893C16.1425 2.50035 15.0401 1.76375 13.8268 1.2612C12.6136 0.758658 11.3132 0.5 10 0.5ZM6 17.42V16.5C6 16.2348 6.10536 15.9804 6.2929 15.7929C6.48043 15.6054 6.73479 15.5 7 15.5H13C13.2652 15.5 13.5196 15.6054 13.7071 15.7929C13.8946 15.9804 14 16.2348 14 16.5V17.42C12.7855 18.1271 11.4053 18.4996 10 18.4996C8.59469 18.4996 7.21448 18.1271 6 17.42ZM15.93 15.85C15.782 15.1833 15.411 14.587 14.8783 14.1597C14.3455 13.7324 13.6829 13.4997 13 13.5H7C6.31707 13.4997 5.65448 13.7324 5.12174 14.1597C4.58899 14.587 4.21797 15.1833 4.07 15.85C3.03059 14.7022 2.34665 13.2773 2.10117 11.7484C1.85569 10.2195 2.05921 8.65214 2.68705 7.23661C3.31489 5.82108 4.34005 4.61819 5.63815 3.77388C6.93625 2.92958 8.45149 2.48017 10 2.48017C11.5485 2.48017 13.0638 2.92958 14.3619 3.77388C15.66 4.61819 16.6851 5.82108 17.313 7.23661C17.9408 8.65214 18.1443 10.2195 17.8988 11.7484C17.6534 13.2773 16.9694 14.7022 15.93 15.85Z" fill="white"/>
</svg>
