<svg width="19" height="19" viewBox="0 0 19 19" fill="none" xmlns="http://www.w3.org/2000/svg">
<path d="M17.71 16.79L14.31 13.4C15.407 12.0025 16.0022 10.2767 16 8.5C16 6.91775 15.5308 5.37103 14.6518 4.05544C13.7727 2.73985 12.5233 1.71447 11.0615 1.10897C9.59966 0.503466 7.99113 0.34504 6.43928 0.653721C4.88743 0.962403 3.46197 1.72433 2.34315 2.84315C1.22433 3.96197 0.462403 5.38743 0.153721 6.93928C-0.15496 8.49113 0.00346625 10.0997 0.608967 11.5615C1.21447 13.0233 2.23985 14.2727 3.55544 15.1518C4.87103 16.0308 6.41775 16.5 8 16.5C9.77666 16.5022 11.5025 15.907 12.9 14.81L16.29 18.21C16.383 18.3037 16.4936 18.3781 16.6154 18.4289C16.7373 18.4797 16.868 18.5058 17 18.5058C17.132 18.5058 17.2627 18.4797 17.3846 18.4289C17.5064 18.3781 17.617 18.3037 17.71 18.21C17.8037 18.117 17.8781 18.0064 17.9289 17.8846C17.9797 17.7627 18.0058 17.632 18.0058 17.5C18.0058 17.368 17.9797 17.2373 17.9289 17.1154C17.8781 16.9936 17.8037 16.883 17.71 16.79ZM2 8.5C2 7.31332 2.3519 6.15328 3.01119 5.16658C3.67047 4.17989 4.60755 3.41085 5.7039 2.95673C6.80026 2.5026 8.00666 2.38378 9.17055 2.61529C10.3344 2.8468 11.4035 3.41825 12.2426 4.25736C13.0818 5.09648 13.6532 6.16558 13.8847 7.32946C14.1162 8.49335 13.9974 9.69975 13.5433 10.7961C13.0892 11.8925 12.3201 12.8295 11.3334 13.4888C10.3467 14.1481 9.18669 14.5 8 14.5C6.4087 14.5 4.88258 13.8679 3.75736 12.7426C2.63214 11.6174 2 10.0913 2 8.5Z" fill="white"/>
</svg>
