<svg width="16" height="13" viewBox="0 0 16 13" fill="none" xmlns="http://www.w3.org/2000/svg">
<path fill-rule="evenodd" clip-rule="evenodd" d="M1.8846 5.86294C5.67437 4.2118 8.20147 3.12327 9.46591 2.59735C13.0762 1.09572 13.8263 0.834877 14.3153 0.826264C14.4228 0.824369 14.6633 0.851021 14.819 0.977406C14.9506 1.08412 14.9867 1.22828 15.0041 1.32946C15.0214 1.43064 15.0429 1.66113 15.0258 1.84123C14.8301 3.89683 13.9836 8.88524 13.5529 11.1876C13.3707 12.1617 13.0119 12.4884 12.6645 12.5204C11.9096 12.5898 11.3363 12.0214 10.6051 11.5421C9.46096 10.7921 8.81458 10.3252 7.70397 9.59336C6.42046 8.74755 7.2525 8.28268 7.98397 7.52294C8.1754 7.32412 11.5017 4.29864 11.566 4.02418C11.5741 3.98985 11.5816 3.8619 11.5055 3.79434C11.4295 3.72678 11.3173 3.74988 11.2364 3.76825C11.1216 3.7943 9.29381 5.00242 5.75291 7.39262C5.23409 7.74889 4.76416 7.92247 4.34311 7.91337C3.87895 7.90335 2.98607 7.65093 2.32232 7.43516C1.50819 7.17052 0.861139 7.03061 0.917483 6.58117C0.94683 6.34707 1.2692 6.10766 1.8846 5.86294Z" fill="white"/>
</svg>
