<svg width="19" height="19" viewBox="0 0 19 19" fill="none" xmlns="http://www.w3.org/2000/svg">
<path d="M8.46156 16.5899C8.46354 16.9068 8.37139 17.2171 8.19679 17.4816C8.02219 17.746 7.773 17.9526 7.48082 18.0753C7.18864 18.1979 6.86662 18.231 6.55559 18.1704C6.24457 18.1098 5.95854 17.9582 5.73378 17.7348C5.50901 17.5115 5.35563 17.2264 5.29308 16.9158C5.23053 16.6051 5.26162 16.2829 5.38242 15.99C5.50322 15.697 5.70829 15.4466 5.97162 15.2703C6.23495 15.094 6.54469 14.9999 6.86156 14.9999C7.28418 14.9999 7.68964 15.1671 7.98941 15.465C8.28919 15.7629 8.45892 16.1673 8.46156 16.5899ZM15.0516 14.9999C14.7351 14.9999 14.4258 15.0938 14.1626 15.2696C13.8995 15.4454 13.6945 15.6953 13.5734 15.9876C13.4523 16.28 13.4206 16.6017 13.4823 16.9121C13.544 17.2225 13.6964 17.5075 13.9202 17.7313C14.144 17.9551 14.429 18.1075 14.7394 18.1692C15.0498 18.2309 15.3715 18.1992 15.6639 18.0781C15.9562 17.957 16.2061 17.752 16.3819 17.4888C16.5577 17.2257 16.6516 16.9164 16.6516 16.5999C16.6516 16.1756 16.483 15.7686 16.1829 15.4686C15.8829 15.1685 15.4759 14.9999 15.0516 14.9999ZM17.7216 3.99994C17.5935 3.96703 17.4602 3.95985 17.3293 3.9788C17.1985 3.99776 17.0727 4.04247 16.9592 4.11036C16.8458 4.17825 16.7469 4.26796 16.6683 4.37431C16.5898 4.48066 16.5331 4.60153 16.5016 4.72994L14.8816 11.2099C14.8268 11.4318 14.6977 11.6282 14.5158 11.7665C14.3338 11.9048 14.11 11.9766 13.8816 11.9699H8.00156C7.77313 11.9766 7.5493 11.9048 7.36736 11.7665C7.18541 11.6282 7.05631 11.4318 7.00156 11.2099L4.44156 0.759936C4.38681 0.53806 4.25772 0.34163 4.07577 0.20335C3.89382 0.0650692 3.67 -0.00671925 3.44156 -6.387e-05H1.10156C0.836346 -6.387e-05 0.581992 0.105293 0.394456 0.292829C0.20692 0.480366 0.101562 0.73472 0.101562 0.999936C0.101562 1.26515 0.20692 1.51951 0.394456 1.70704C0.581992 1.89458 0.836346 1.99994 1.10156 1.99994H2.69156L5.12156 11.7299C5.28299 12.3735 5.65323 12.9455 6.17435 13.3562C6.69547 13.7669 7.33806 13.9933 8.00156 13.9999H13.8816C14.5502 14 15.1997 13.7766 15.7269 13.3654C16.2541 12.9541 16.6289 12.3785 16.7916 11.7299L18.4116 5.23994C18.4481 5.11321 18.4593 4.9805 18.4444 4.84945C18.4295 4.7184 18.3888 4.5916 18.3246 4.47634C18.2605 4.36108 18.1742 4.25965 18.0707 4.17789C17.9672 4.09613 17.8485 4.03565 17.7216 3.99994ZM8.72156 6.99994H10.0016V8.24994C10.0016 8.51515 10.1069 8.76951 10.2945 8.95704C10.482 9.14458 10.7363 9.24994 11.0016 9.24994C11.2668 9.24994 11.5211 9.14458 11.7087 8.95704C11.8962 8.76951 12.0016 8.51515 12.0016 8.24994V6.99994H13.2616C13.5268 6.99994 13.7811 6.89458 13.9687 6.70704C14.1562 6.51951 14.2616 6.26515 14.2616 5.99994C14.2616 5.73472 14.1562 5.48037 13.9687 5.29283C13.7811 5.10529 13.5268 4.99994 13.2616 4.99994H12.0016V3.74994C12.0016 3.48472 11.8962 3.23037 11.7087 3.04283C11.5211 2.85529 11.2668 2.74994 11.0016 2.74994C10.7363 2.74994 10.482 2.85529 10.2945 3.04283C10.1069 3.23037 10.0016 3.48472 10.0016 3.74994V4.99994H8.76156C8.49635 4.99994 8.24199 5.10529 8.05446 5.29283C7.86692 5.48037 7.76156 5.73472 7.76156 5.99994C7.76156 6.26515 7.86692 6.51951 8.05446 6.70704C8.24199 6.89458 8.49635 6.99994 8.76156 6.99994H8.72156Z" fill="white"/>
</svg>
