<svg width="11" height="11" viewBox="0 0 11 11" fill="none" xmlns="http://www.w3.org/2000/svg">
<path d="M6.11111 2.31579C6.11111 2.16224 6.1755 2.01499 6.2901 1.90641C6.40471 1.79784 6.56015 1.73684 6.72222 1.73684H9.26444L8.51278 0.914737C8.46143 0.867175 8.42106 0.810043 8.3942 0.746951C8.36734 0.683858 8.35458 0.616174 8.35672 0.548174C8.35887 0.480173 8.37587 0.413333 8.40666 0.351873C8.43746 0.290414 8.48137 0.23567 8.53562 0.191099C8.58987 0.146528 8.65329 0.113098 8.72187 0.0929204C8.79045 0.0727424 8.8627 0.0662547 8.93406 0.0738669C9.00542 0.0814791 9.07433 0.103026 9.13646 0.137146C9.19859 0.171267 9.25257 0.217221 9.295 0.272105L10.8717 2.00895C10.8861 2.02691 10.8984 2.04632 10.9083 2.06684C10.9282 2.09383 10.9447 2.12299 10.9572 2.15368C10.96 2.18257 10.96 2.21164 10.9572 2.24053C10.9735 2.30132 10.9735 2.365 10.9572 2.42579C10.96 2.45468 10.96 2.48374 10.9572 2.51263C10.9447 2.54333 10.9282 2.57249 10.9083 2.59947C10.8984 2.61999 10.8861 2.63941 10.8717 2.65737L9.295 4.39421C9.25257 4.4491 9.19859 4.49505 9.13646 4.52917C9.07433 4.56329 9.00542 4.58484 8.93406 4.59245C8.8627 4.60006 8.79045 4.59357 8.72187 4.5734C8.65329 4.55322 8.58987 4.51979 8.53562 4.47522C8.48137 4.43065 8.43746 4.3759 8.40666 4.31444C8.37587 4.25298 8.35887 4.18614 8.35672 4.11814C8.35458 4.05014 8.36734 3.98246 8.3942 3.91937C8.42106 3.85627 8.46143 3.79914 8.51278 3.75158L9.26444 2.89474H6.72222C6.56015 2.89474 6.40471 2.83374 6.2901 2.72517C6.1755 2.61659 6.11111 2.46934 6.11111 2.31579ZM4.88889 1.44737V3.18421C4.88889 3.56808 4.72793 3.93622 4.44141 4.20765C4.1549 4.47909 3.7663 4.63158 3.36111 4.63158H1.52778C1.12259 4.63158 0.73399 4.47909 0.447476 4.20765C0.160962 3.93622 0 3.56808 0 3.18421V1.44737C0 1.0635 0.160962 0.695359 0.447476 0.423924C0.73399 0.15249 1.12259 0 1.52778 0H3.36111C3.7663 0 4.1549 0.15249 4.44141 0.423924C4.72793 0.695359 4.88889 1.0635 4.88889 1.44737ZM3.66667 1.44737C3.66667 1.3706 3.63447 1.29697 3.57717 1.24268C3.51987 1.18839 3.44215 1.15789 3.36111 1.15789H1.52778C1.44674 1.15789 1.36902 1.18839 1.31172 1.24268C1.25441 1.29697 1.22222 1.3706 1.22222 1.44737V3.18421C1.22222 3.26098 1.25441 3.33461 1.31172 3.3889C1.36902 3.44319 1.44674 3.47368 1.52778 3.47368H3.36111C3.44215 3.47368 3.51987 3.44319 3.57717 3.3889C3.63447 3.33461 3.66667 3.26098 3.66667 3.18421V1.44737ZM4.27778 8.10526H1.73556L2.48722 7.28316C2.53857 7.2356 2.57894 7.17846 2.6058 7.11537C2.63266 7.05228 2.64542 6.9846 2.64328 6.91659C2.64113 6.84859 2.62413 6.78175 2.59333 6.72029C2.56254 6.65883 2.51863 6.60409 2.46438 6.55952C2.41013 6.51495 2.34671 6.48152 2.27813 6.46134C2.20955 6.44116 2.1373 6.43468 2.06594 6.44229C1.99458 6.4499 1.92567 6.47145 1.86354 6.50557C1.80141 6.53969 1.74743 6.58564 1.705 6.64053L0.128333 8.37737C0.1139 8.39533 0.101604 8.41475 0.0916667 8.43526C0.071758 8.46225 0.055344 8.49141 0.0427777 8.52211C0.040011 8.55099 0.040011 8.58006 0.0427777 8.60895C0.0264814 8.66974 0.0264814 8.73342 0.0427777 8.79421C0.040011 8.8231 0.040011 8.85216 0.0427777 8.88105C0.055344 8.91175 0.071758 8.94091 0.0916667 8.96789C0.101604 8.98841 0.1139 9.00783 0.128333 9.02579L1.705 10.7626C1.74743 10.8175 1.80141 10.8635 1.86354 10.8976C1.92567 10.9317 1.99458 10.9533 2.06594 10.9609C2.1373 10.9685 2.20955 10.962 2.27813 10.9418C2.34671 10.9216 2.41013 10.8882 2.46438 10.8436C2.51863 10.7991 2.56254 10.7443 2.59333 10.6829C2.62413 10.6214 2.64113 10.5546 2.64328 10.4866C2.64542 10.4186 2.63266 10.3509 2.6058 10.2878C2.57894 10.2247 2.53857 10.1676 2.48722 10.12L1.73556 9.26316H4.27778C4.43985 9.26316 4.59529 9.20216 4.7099 9.09359C4.8245 8.98501 4.88889 8.83776 4.88889 8.68421C4.88889 8.53066 4.8245 8.38341 4.7099 8.27483C4.59529 8.16626 4.43985 8.10526 4.27778 8.10526ZM11 7.81579V9.55263C11 9.9365 10.839 10.3046 10.5525 10.5761C10.266 10.8475 9.87741 11 9.47222 11H7.63889C7.2337 11 6.8451 10.8475 6.55859 10.5761C6.27207 10.3046 6.11111 9.9365 6.11111 9.55263V7.81579C6.11111 7.43192 6.27207 7.06378 6.55859 6.79235C6.8451 6.52091 7.2337 6.36842 7.63889 6.36842H9.47222C9.87741 6.36842 10.266 6.52091 10.5525 6.79235C10.839 7.06378 11 7.43192 11 7.81579ZM9.77778 7.81579C9.77778 7.73902 9.74559 7.66539 9.68828 7.6111C9.63098 7.55681 9.55326 7.52632 9.47222 7.52632H7.63889C7.55785 7.52632 7.48013 7.55681 7.42283 7.6111C7.36553 7.66539 7.33333 7.73902 7.33333 7.81579V9.55263C7.33333 9.62941 7.36553 9.70303 7.42283 9.75732C7.48013 9.81161 7.55785 9.8421 7.63889 9.8421H9.47222C9.55326 9.8421 9.63098 9.81161 9.68828 9.75732C9.74559 9.70303 9.77778 9.62941 9.77778 9.55263V7.81579Z" fill="#2DA55F"/>
</svg>
