<svg width="13" height="11" viewBox="0 0 13 11" fill="none" xmlns="http://www.w3.org/2000/svg">
<path d="M9.05947 0.00272746C8.20818 0.00234338 7.38646 0.314301 6.75069 0.879234C6.61956 0.996275 6.4498 1.06098 6.27387 1.06098C6.09794 1.06098 5.92819 0.996275 5.79706 0.879234C5.29533 0.433584 4.67514 0.142258 4.01126 0.0403758C3.34737 -0.0615068 2.66812 0.0304024 2.0554 0.305024C1.44267 0.579646 0.922616 1.02526 0.557925 1.58814C0.193234 2.15103 -0.000525776 2.80716 1.07155e-06 3.47745C1.07155e-06 6.45131 4.57993 9.9323 5.90999 10.8839C6.01624 10.9594 6.14344 11 6.27387 11C6.40431 11 6.5315 10.9594 6.63776 10.8839C7.96782 9.9323 12.5477 6.45131 12.5477 3.47745C12.5461 2.55532 12.1778 1.67153 11.5238 1.02007C10.8698 0.368612 9.98353 0.00272597 9.05947 0.00272746ZM6.27387 9.59422C3.72041 7.71599 1.25478 5.15534 1.25478 3.47745C1.25648 3.04961 1.38154 2.63129 1.61504 2.27246C1.84854 1.91363 2.1806 1.62944 2.57156 1.45384C2.96253 1.27824 3.39589 1.21864 3.81988 1.28217C4.24387 1.3457 4.64058 1.52966 4.96263 1.81209C5.32292 2.13459 5.78987 2.31296 6.27387 2.31296C6.75787 2.31296 7.22482 2.13459 7.58511 1.81209C7.90717 1.52966 8.30388 1.3457 8.72787 1.28217C9.15186 1.21864 9.58521 1.27824 9.97618 1.45384C10.3671 1.62944 10.6992 1.91363 10.9327 2.27246C11.1662 2.63129 11.2913 3.04961 11.293 3.47745C11.293 5.15534 8.82734 7.70347 6.27387 9.59422Z" fill="#2DA55F"/>
</svg>
