<svg width="240" height="202" viewBox="0 0 240 202" fill="none" xmlns="http://www.w3.org/2000/svg">
<path d="M195.282 97.4927C195.282 100.331 195.163 103.141 194.924 105.922C194.736 108.092 194.48 110.244 194.155 112.376C193.81 114.633 193.386 116.863 192.885 119.065V119.068C192.558 120.518 192.198 121.956 191.806 123.382C190.669 127.527 189.255 131.592 187.574 135.548C187.208 136.408 186.831 137.263 186.442 138.112C184.969 141.327 183.319 144.458 181.501 147.491C176.402 156.008 170.037 163.7 162.625 170.302C161.822 171.016 161.009 171.717 160.185 172.407C142.683 187.027 120.594 195.02 97.7895 194.985C43.9451 194.985 0.296875 151.337 0.296875 97.4927C0.296875 43.6484 43.9451 0.000120752 97.7895 0.000120752C119.809 -0.0345986 141.186 7.41867 158.41 21.1362C159.217 21.776 160.015 22.4302 160.802 23.0988C164.642 26.3561 168.227 29.904 171.523 33.7112H171.526C186.88 51.4098 195.317 74.0625 195.282 97.4927Z" fill="#F2F2F2"/>
<path d="M29.0759 114.333C19.7886 108.806 12.7789 98.4756 13.6889 87.7063C22.1798 95.8329 33.2715 100.694 45.0015 101.43C49.5264 101.698 54.5869 101.524 57.9177 104.598C59.9902 106.511 60.955 109.391 61.1132 112.207C61.2714 115.023 60.7073 117.824 60.1461 120.588L60.3393 121.265C49.5316 121.306 38.3632 119.861 29.0759 114.333Z" fill="#E6E6E6"/>
<path d="M13.9134 87.6944C17.6346 95.8295 23.8245 102.585 31.6038 107.002C33.2762 107.938 35.0542 108.742 36.9436 109.115C38.7881 109.465 40.6925 109.314 42.4589 108.678C44.1178 108.119 45.7499 107.355 47.516 107.208C49.3775 107.054 51.1008 107.772 52.4548 109.03C54.1115 110.569 55.1163 112.611 56.0295 114.643C57.0435 116.899 58.061 119.258 60.0051 120.88C60.2406 121.076 59.9219 121.43 59.6867 121.234C56.3043 118.412 55.7522 113.685 53.0485 110.362C51.7869 108.811 50.0503 107.63 47.9872 107.662C46.1831 107.689 44.4994 108.476 42.8246 109.057C41.066 109.667 39.3043 109.953 37.4477 109.685C35.5485 109.41 33.7354 108.674 32.0464 107.785C28.2315 105.74 24.7618 103.108 21.7645 99.9846C18.3239 96.4395 15.5152 92.332 13.4597 87.8397C13.3326 87.5616 13.7872 87.4182 13.9134 87.6944H13.9134Z" fill="white"/>
<path d="M29.0154 105.728C28.0972 106.932 26.7806 107.771 25.3009 108.095C23.8212 108.418 22.2747 108.205 20.9375 107.494C20.6674 107.349 20.8799 106.922 21.1503 107.067C22.3943 107.732 23.8349 107.931 25.2122 107.626C26.5895 107.322 27.8127 106.536 28.6611 105.409C28.8458 105.165 29.199 105.484 29.0154 105.728L29.0154 105.728Z" fill="white"/>
<path d="M41.6567 109.073C41.2703 106.001 39.7401 103.187 37.3714 101.193C37.1365 100.996 37.4552 100.642 37.6898 100.839C40.1509 102.918 41.7373 105.85 42.1324 109.047C42.1699 109.352 41.694 109.376 41.6567 109.073V109.073Z" fill="white"/>
<path d="M18.9199 96.216C19.3723 95.824 19.7203 95.3257 19.9325 94.7659C20.1447 94.2062 20.2146 93.6025 20.1359 93.009C20.0946 92.7048 20.5705 92.6814 20.6116 92.9836C20.6955 93.6397 20.6175 94.3063 20.3844 94.9253C20.1513 95.5443 19.7701 96.0967 19.2742 96.5344C19.2309 96.5796 19.1721 96.6066 19.1096 96.6099C19.0471 96.6133 18.9857 96.5927 18.9379 96.5524C18.8912 96.51 18.8631 96.4509 18.8597 96.3879C18.8564 96.3249 18.878 96.2632 18.9199 96.2161V96.216Z" fill="white"/>
<path d="M43.7522 66.842C43.7834 67.0313 43.8145 67.2205 43.8493 67.4115C44.2818 69.9531 44.9201 72.4554 45.7578 74.8937C45.8195 75.0832 45.885 75.2744 45.9521 75.4617C48.033 81.3145 51.1824 86.7302 55.2402 91.4333C56.8566 93.3033 58.613 95.0476 60.4941 96.6511C63.092 98.8655 66.0851 101.06 67.7508 103.919C67.9279 104.215 68.0865 104.522 68.2257 104.838L61.1512 120.976C61.1167 121.005 61.0858 121.035 61.0513 121.064L60.7983 121.721C60.6955 121.645 60.5905 121.565 60.4877 121.489C60.4279 121.445 60.3697 121.397 60.3099 121.354C60.2705 121.323 60.2311 121.293 60.1939 121.268C60.1807 121.258 60.1677 121.247 60.1582 121.239C60.1209 121.214 60.089 121.186 60.0554 121.163C59.4674 120.712 58.8815 120.256 58.2977 119.796C58.294 119.794 58.294 119.794 58.2919 119.789C53.8529 116.267 49.6689 112.343 46.2134 107.91C46.1095 107.776 46.0018 107.641 45.9011 107.5C44.3546 105.493 42.9748 103.363 41.7754 101.131C41.1225 99.9068 40.5321 98.6503 40.0063 97.3663C38.6541 94.0461 37.8326 90.5338 37.5719 86.9583C37.0532 79.8305 38.8199 72.6162 43.3983 67.2487C43.5156 67.1115 43.6313 66.9777 43.7522 66.842Z" fill="#E6E6E6"/>
<path d="M43.9419 66.9683C42.0152 75.7041 42.89 84.8249 46.4421 93.0352C47.2138 94.7896 48.1493 96.502 49.4334 97.9374C50.6957 99.3269 52.3071 100.353 54.1001 100.909C55.7615 101.461 57.5249 101.834 59.0231 102.78C60.6024 103.777 61.5459 105.388 61.8697 107.208C62.2658 109.434 61.8384 111.67 61.3444 113.842C60.796 116.253 60.1881 118.749 60.7637 121.215C60.8335 121.514 60.3658 121.605 60.2962 121.306C59.2947 117.017 61.6995 112.91 61.5419 108.629C61.4683 106.631 60.7923 104.643 59.1263 103.426C57.6694 102.361 55.8514 101.976 54.1643 101.431C52.3929 100.86 50.8138 100.028 49.493 98.6956C48.1419 97.3329 47.1375 95.6534 46.3243 93.9265C44.5096 89.9968 43.324 85.8062 42.811 81.5082C42.1983 76.6061 42.4287 71.6354 43.4922 66.811C43.5581 66.5125 44.0074 66.6716 43.9419 66.9683Z" fill="white"/>
<path d="M45.1463 90.459C43.6879 90.868 42.1316 90.7452 40.7553 90.1127C39.3791 89.4801 38.2725 88.3789 37.6332 87.0057C37.5048 86.7275 37.9312 86.5149 38.0598 86.7935C38.6527 88.0733 39.6836 89.0989 40.9664 89.6854C42.2492 90.2718 43.6993 90.3804 45.0551 89.9915C45.3498 89.9073 45.4393 90.3754 45.1463 90.459H45.1463Z" fill="white"/>
<path d="M53.2221 100.74C54.7631 98.0546 55.2353 94.8868 54.5445 91.8686C54.4758 91.5696 54.9434 91.4788 55.0121 91.7774C55.725 94.9196 55.2269 98.2151 53.6171 101.006C53.4635 101.272 53.0693 101.005 53.2221 100.74Z" fill="white"/>
<path d="M42.8017 76.7832C43.399 76.7425 43.9768 76.5542 44.4833 76.235C44.9898 75.9159 45.4091 75.4759 45.7035 74.9547C45.8537 74.6869 46.2478 74.9548 46.0986 75.2208C45.7706 75.7951 45.3069 76.2805 44.7481 76.6343C44.1893 76.9882 43.5524 77.1998 42.8929 77.2507C42.8312 77.2607 42.7679 77.2468 42.716 77.2119C42.6642 77.1769 42.6275 77.1235 42.6136 77.0625C42.6018 77.0006 42.615 76.9365 42.6502 76.8842C42.6854 76.8319 42.7399 76.7956 42.8017 76.7832V76.7832Z" fill="white"/>
<path d="M67.8311 22.5962L79.7638 162.283L55.8984 164.077V24.3734C58.7422 22.4916 62.8244 22.1972 67.8311 22.5962Z" fill="#CCCCCC"/>
<path d="M126.73 22.5962L114.797 162.283L138.662 164.077V24.3734C135.818 22.4916 131.736 22.1972 126.73 22.5962Z" fill="#CCCCCC"/>
<path d="M135.088 169.851H59.2139C57.9973 169.849 56.8309 169.365 55.9706 168.505C55.1103 167.645 54.6264 166.478 54.625 165.262V26.4234C54.6264 25.2068 55.1103 24.0404 55.9706 23.1801C56.8309 22.3198 57.9973 21.8359 59.2139 21.8345H135.088C136.305 21.8359 137.471 22.3198 138.332 23.1801C139.192 24.0404 139.676 25.2068 139.677 26.4234V165.262C139.676 166.478 139.192 167.645 138.332 168.505C137.471 169.365 136.305 169.849 135.088 169.851ZM59.2139 23.3578C58.4012 23.3587 57.6219 23.682 57.0472 24.2567C56.4725 24.8314 56.1492 25.6106 56.1483 26.4234V165.262C56.1492 166.074 56.4725 166.854 57.0472 167.428C57.6219 168.003 58.4011 168.326 59.2139 168.327H135.088C135.901 168.326 136.68 168.003 137.255 167.428C137.83 166.854 138.153 166.074 138.154 165.262V26.4234C138.153 25.6106 137.83 24.8314 137.255 24.2567C136.68 23.682 135.901 23.3587 135.088 23.3578L59.2139 23.3578Z" fill="#CCCCCC"/>
<path d="M138.919 44.938H55.3906V46.4613H138.919V44.938Z" fill="#CCCCCC"/>
<path d="M138.919 70.3269H55.3906V71.8502H138.919V70.3269Z" fill="#CCCCCC"/>
<path d="M82.4921 22.5959H80.9688V91.9071H82.4921V22.5959Z" fill="#CCCCCC"/>
<path d="M113.336 22.5959H111.812V91.9071H113.336V22.5959Z" fill="#CCCCCC"/>
<path d="M148.441 174.04H48.4096C46.5916 174.04 44.848 173.318 43.5625 172.032C42.2769 170.746 41.5547 169.003 41.5547 167.185C41.5547 165.367 42.2769 163.623 43.5625 162.338C44.848 161.052 46.5916 160.33 48.4096 160.33H148.441C150.259 160.33 152.003 161.052 153.288 162.338C154.574 163.623 155.296 165.367 155.296 167.185C155.296 169.003 154.574 170.746 153.288 172.032C152.003 173.318 150.259 174.04 148.441 174.04Z" fill="#CCCCCC"/>
<path d="M138.919 88.3528H55.8984V93.4305H138.919V88.3528Z" fill="#CCCCCC"/>
<path d="M82.733 104.513L82.6276 104.462C76.9681 101.728 69.5568 101.73 58.5964 104.471L58.4793 104.5L58.4443 104.385C57.2848 100.583 55.9713 96.2769 58.4388 94.1584C58.4734 87.9419 63.9264 82.894 70.6243 82.894C77.3208 82.894 82.773 87.9393 82.8096 94.1542C86.4802 96.9606 84.7309 101.108 82.7922 104.412L82.733 104.513Z" fill="#2F2E41"/>
<path d="M117.519 91.2014C117.418 91.7052 117.207 92.1805 116.902 92.594C116.597 93.0075 116.205 93.3491 115.754 93.5947C115.302 93.8404 114.802 93.984 114.29 94.0156C113.777 94.0472 113.263 93.966 112.785 93.7776L92.7845 113.876L91 107.636L110.864 88.9712C111.234 88.189 111.878 87.5696 112.674 87.2303C113.469 86.8911 114.362 86.8555 115.182 87.1304C116.003 87.4053 116.694 87.9716 117.124 88.7219C117.555 89.4722 117.695 90.3544 117.519 91.2014L117.519 91.2014Z" fill="#FFB6B6"/>
<path d="M68.0824 110.551C68.0824 110.551 66.2678 114.663 70.7453 117.199C75.2228 119.735 90.8716 116.231 93.4108 115.742C95.95 115.253 105.434 101.06 105.434 101.06L104.093 94.0999L91.5151 105.018L68.0824 110.551Z" fill="#2DA55F"/>
<path d="M64.7864 133.291L65.0403 138.114C65.0403 138.114 64.291 142.387 64.9073 143.31C65.5189 144.227 82.2098 144.343 82.2098 144.343C82.2098 144.343 83.3126 138.398 84.2625 133.194L64.7864 133.291Z" fill="#FFB6B6"/>
<path d="M112.769 197.073L116.258 196.368L115.259 182.273L110.109 183.314L112.769 197.073Z" fill="#FFB6B6"/>
<path d="M117.768 178.731L121.012 177.272L116.803 163.787L112.016 165.94L117.768 178.731Z" fill="#FFB6B6"/>
<path d="M120.594 171.133L114.486 174.591L99.4228 150.385C88.848 157.509 78.5072 160.921 68.0828 162.742C64.5584 163.369 60.965 163.051 60.2883 159.464C60.2567 159.296 60.2315 159.128 60.2127 158.958C59.7965 155.04 64.6705 150.018 65.2901 145.224L78.6294 144.423L80.2743 146.532L95.7008 137.048C98.8031 135.14 102.883 136.172 104.815 139.352C104.916 139.52 105.011 139.692 105.098 139.868L120.594 171.133Z" fill="#2F2E41"/>
<path d="M116.86 187.416L109.871 188.066L97.1983 162.149C84.632 164.31 72.7769 165.002 62.5227 162.388C59.0509 161.515 56.9287 157.93 57.7826 154.381C57.8225 154.215 57.8687 154.051 57.9211 153.888C59.1483 150.144 62.3608 147.495 64.8917 143.376L83.379 143.657L81.3141 150.782L99.2732 148.458C102.885 147.991 106.183 150.605 106.64 154.297C106.665 154.492 106.68 154.688 106.688 154.884L116.86 187.416Z" fill="#2F2E41"/>
<path d="M72.0069 100.828C76.1528 100.828 79.5137 97.4673 79.5137 93.3213C79.5137 89.1754 76.1528 85.8145 72.0069 85.8145C67.8609 85.8145 64.5 89.1754 64.5 93.3213C64.5 97.4673 67.8609 100.828 72.0069 100.828Z" fill="#FFB6B6"/>
<path d="M67.6009 103.538L74.484 104.348C74.7743 104.382 75.0467 104.506 75.2632 104.702C75.4798 104.899 75.6297 105.158 75.6921 105.443L76.7867 110.452L83.6103 118.488C83.6103 118.488 86.0606 123.082 85.1418 128.289C84.2229 133.496 83.8191 137.365 83.8191 137.365C83.8191 137.365 65.5149 144.228 64.9023 143.309C64.2897 142.39 64.0909 138.216 64.0909 138.216L61.6406 110.957C61.6406 110.957 64.3972 106.363 65.9287 106.363C66.917 106.329 66.7902 104.105 67.6009 103.538Z" fill="#2DA55F"/>
<path d="M84.0055 139.041C84.9707 139.041 85.7532 138.102 85.7532 136.943C85.7532 135.785 84.9707 134.846 84.0055 134.846C83.0403 134.846 82.2578 135.785 82.2578 136.943C82.2578 138.102 83.0403 139.041 84.0055 139.041Z" fill="#2DA55F"/>
<path d="M111.039 193.443L116.359 190.777L117.362 193.116L124.089 194.476C124.421 194.543 124.723 194.715 124.951 194.966C125.179 195.217 125.32 195.534 125.355 195.871C125.39 196.209 125.316 196.548 125.144 196.84C124.972 197.132 124.712 197.362 124.4 197.496L117.9 200.282L115.788 198.448L116.343 200.949L113.892 202L111.039 193.443Z" fill="#2F2E41"/>
<path d="M116.25 177.609L121.522 174.85L122.566 177.171L129.316 178.412C129.649 178.473 129.954 178.64 130.186 178.886C130.419 179.133 130.566 179.448 130.607 179.785C130.647 180.121 130.579 180.462 130.413 180.757C130.246 181.052 129.989 181.286 129.68 181.425L123.23 184.325L121.086 182.529L121.685 185.02L119.253 186.114L116.25 177.609Z" fill="#2F2E41"/>
<path d="M67.7126 90.9664C65.7294 90.9696 63.7937 90.359 62.1714 89.2182L62.1172 89.1803V89.1142C62.1194 87.1958 62.8824 85.3566 64.2389 84.0001C65.5954 82.6436 67.4346 81.8806 69.353 81.8784H72.3996C74.318 81.8806 76.1572 82.6436 77.5137 84.0001C78.8702 85.3566 79.6332 87.1958 79.6354 89.1142C79.6334 89.5533 79.46 89.9742 79.1522 90.2874C78.8444 90.6005 78.4266 90.7811 77.9876 90.7907L67.8838 90.9649C67.8268 90.9659 67.7695 90.9664 67.7126 90.9664Z" fill="#2F2E41"/>
<path d="M80.1455 87.7247C81.1169 87.1639 81.2793 85.6263 80.5081 84.2906C79.7369 82.9548 78.3242 82.3267 77.3527 82.8875C76.3813 83.4484 76.2189 84.9859 76.9901 86.3217C77.7613 87.6574 79.174 88.2856 80.1455 87.7247Z" fill="#2F2E41"/>
<path d="M64.9487 86.2345C66.0394 85.1439 66.2805 83.6168 65.4873 82.8236C64.6941 82.0304 63.167 82.2715 62.0763 83.3621C60.9857 84.4528 60.7446 85.9799 61.5378 86.7731C62.331 87.5663 63.8581 87.3252 64.9487 86.2345Z" fill="#2F2E41"/>
<path d="M131.386 154.871H123.893C123.724 154.871 123.557 154.907 123.403 154.978C123.25 155.049 123.114 155.153 123.004 155.282C122.728 155.231 122.444 155.246 122.174 155.327C121.905 155.407 121.659 155.551 121.456 155.745C121.252 155.939 121.098 156.178 121.006 156.444C120.913 156.709 120.885 156.992 120.923 157.271C120.961 157.549 121.065 157.814 121.225 158.045C121.386 158.276 121.599 158.465 121.847 158.597C122.095 158.729 122.37 158.801 122.651 158.806C122.932 158.811 123.21 158.749 123.463 158.626L124.084 160.646C124.158 160.885 124.306 161.094 124.508 161.243C124.709 161.392 124.953 161.472 125.203 161.472H130.075C130.325 161.472 130.569 161.392 130.77 161.243C130.972 161.094 131.12 160.885 131.194 160.646L132.505 156.386C132.558 156.211 132.57 156.026 132.54 155.845C132.509 155.665 132.436 155.494 132.327 155.346C132.218 155.199 132.077 155.079 131.913 154.997C131.749 154.914 131.569 154.871 131.386 154.871ZM122.688 158.299C122.352 158.299 122.029 158.165 121.791 157.927C121.553 157.689 121.419 157.366 121.419 157.029C121.419 156.692 121.553 156.37 121.791 156.132C122.029 155.893 122.352 155.76 122.688 155.76C122.711 155.76 122.733 155.765 122.756 155.767C122.705 155.971 122.712 156.185 122.774 156.386L123.31 158.129C123.121 158.239 122.907 158.297 122.688 158.299Z" fill="#3F3D56"/>
<path d="M97.9279 149.36C97.4162 149.407 96.9004 149.342 96.4167 149.168C95.9331 148.995 95.4934 148.717 95.1286 148.355C94.7638 147.993 94.4828 147.556 94.3054 147.074C94.1279 146.591 94.0584 146.076 94.1017 145.564L69.1094 132.171L74.5758 128.671L98.155 142.345C99.0103 142.475 99.7884 142.914 100.342 143.579C100.895 144.244 101.185 145.089 101.157 145.953C101.129 146.818 100.785 147.643 100.19 148.27C99.5947 148.898 98.7898 149.286 97.9279 149.36Z" fill="#FFB6B6"/>
<path d="M65.2105 107.559C65.2105 107.559 60.7506 107 59.6059 112.017C58.4612 117.034 66.3075 131.019 67.5046 133.311C68.7018 135.603 85.0185 140.616 85.0185 140.616L91.3014 137.335L77.2334 128.419L65.2105 107.559Z" fill="#2DA55F"/>
<path d="M96.6521 86.8293H98.1755C98.9161 86.8293 99.6265 87.1236 100.15 87.6473C100.674 88.1711 100.968 88.8814 100.968 89.6221H93.8594C93.8594 88.8814 94.1536 88.1711 94.6774 87.6473C95.2011 87.1236 95.9114 86.8293 96.6521 86.8293Z" fill="#CCCCCC"/>
<path d="M48.3415 34.7231C56.6763 34.7231 63.433 27.9664 63.433 19.6316C63.433 11.2967 56.6763 4.54004 48.3415 4.54004C40.0067 4.54004 33.25 11.2967 33.25 19.6316C33.25 27.9664 40.0067 34.7231 48.3415 34.7231Z" fill="#FF5353"/>
<path d="M94.5478 18.845C90.5538 14.6552 85.9153 10.833 80.4241 8.81328C78.8945 8.24827 77.3085 7.84971 75.6936 7.6245C75.6806 7.62272 75.6683 7.62535 75.6554 7.6243C75.6291 7.61753 75.6024 7.6123 75.5756 7.60864C73.3169 7.32089 71.0242 7.45931 68.8165 8.0167C67.7369 8.28762 66.6837 8.65452 65.6695 9.11302C64.6516 9.60958 63.6654 10.1685 62.7164 10.7866C60.7078 11.9889 58.4962 12.814 56.1909 13.221C55.0337 13.4293 53.8617 13.5444 52.6861 13.565C51.666 13.5854 50.7041 13.6209 49.7376 13.9894C48.7053 14.3776 47.7779 15.0017 47.0296 15.812C46.2813 16.6222 45.7327 17.5962 45.4277 18.6561C45.4042 18.7505 45.4112 18.8499 45.4479 18.94C45.4846 19.0301 45.5489 19.1062 45.6316 19.1574C45.8931 19.3446 46.1479 19.557 46.4226 19.7238C46.667 19.8357 46.9279 19.9069 47.1952 19.9346C47.6319 20.0267 48.0692 20.1162 48.507 20.2029C50.1199 20.5225 51.7395 20.8054 53.3657 21.0516C56.6565 21.5497 59.965 21.9006 63.2913 22.1043C69.9548 22.5079 76.6412 22.307 83.2684 21.5039C86.9929 21.0528 90.6922 20.4129 94.3519 19.5869C94.426 19.5652 94.4932 19.5248 94.5471 19.4695C94.601 19.4142 94.6396 19.3459 94.6594 19.2712C94.6791 19.1966 94.6791 19.1181 94.6596 19.0434C94.64 18.9688 94.6015 18.9004 94.5478 18.845Z" fill="#E6E6E6"/>
<path d="M49.0569 28.9353C47.5273 28.3703 45.9413 27.9718 44.3264 27.7466C44.3134 27.7448 44.3011 27.7474 44.2882 27.7464C44.2619 27.7396 44.2353 27.7344 44.2084 27.7307C41.9497 27.443 39.657 27.5814 37.4494 28.1388C36.3697 28.4097 35.3165 28.7766 34.3023 29.2351C33.2844 29.7317 32.2982 30.2906 31.3492 30.9086C29.3406 32.111 27.1291 32.936 24.8237 33.3431C23.6665 33.5514 22.4945 33.6664 21.3189 33.687C20.2988 33.7075 19.3369 33.7429 18.3704 34.1115C17.3381 34.4997 16.4107 35.1238 15.6624 35.934C14.9141 36.7443 14.3655 37.7182 14.0605 38.7781C14.037 38.8725 14.0441 38.9719 14.0807 39.062C14.1174 39.1521 14.1817 39.2283 14.2645 39.2794C14.5259 39.4666 14.7808 39.6791 15.0554 39.8459C15.2998 39.9577 15.5608 40.0289 15.828 40.0566C16.2647 40.1488 16.702 40.2382 17.1398 40.325C18.7527 40.6445 20.3723 40.9274 21.9986 41.1736C25.2893 41.6718 28.5978 42.0227 31.9241 42.2263C38.5876 42.63 45.274 42.429 51.9012 41.6259C55.6258 41.1748 59.325 40.535 62.9847 39.7089C63.0588 39.6872 63.1261 39.6468 63.1799 39.5915C63.2338 39.5362 63.2725 39.4679 63.2922 39.3933C63.3119 39.3186 63.3119 39.2402 63.2924 39.1655C63.2729 39.0908 63.2343 39.0224 63.1806 38.967C59.1866 34.7773 54.5481 30.9551 49.0569 28.9353Z" fill="#E6E6E6"/>
<path d="M157.888 141.44L146.282 126.194L137.125 131.372L156.53 154.415L157.888 141.44Z" fill="#3F3D56"/>
<path d="M184.622 116.656C184.88 123.045 185.87 129.384 187.572 135.548C187.207 136.408 186.829 137.263 186.44 138.112C184.967 141.327 183.317 144.458 181.499 147.491C176.4 156.008 170.035 163.7 162.623 170.302C161.821 171.016 161.007 171.717 160.183 172.407C155.483 165.928 152.947 158.778 151.944 151.421C151.817 150.487 151.713 149.542 151.635 148.603V148.598C151.442 146.315 151.38 144.023 151.449 141.733C151.452 141.55 151.457 141.364 151.464 141.179C151.553 138.732 151.774 136.279 152.107 133.849V133.847C152.145 133.568 152.183 133.288 152.226 133.009C152.348 132.171 152.485 131.333 152.635 130.501C153.507 125.698 154.723 120.964 156.276 116.336V116.334C156.319 116.199 156.362 116.067 156.41 115.935C156.578 115.432 156.748 114.935 156.923 114.437C156.934 114.398 156.947 114.36 156.964 114.323C157.19 113.673 157.421 113.028 157.657 112.388C157.72 112.211 157.786 112.033 157.855 111.855C158.121 111.142 158.393 110.433 158.67 109.735C158.756 109.512 158.845 109.288 158.934 109.067C159.002 108.897 159.068 108.727 159.139 108.56V108.557C159.543 107.559 159.952 106.581 160.366 105.622C161.526 102.926 162.719 100.39 163.882 98.0513L163.885 98.0487C168.711 88.368 173.098 82.0818 173.098 82.0818L189.573 87.4134C187.608 90.8993 186.087 96.0405 185.254 102.106C184.613 106.927 184.401 111.795 184.622 116.654L184.622 116.656Z" fill="#3F3D56"/>
<path d="M157.243 115.105C157.146 114.879 157.037 114.658 156.925 114.437C156.346 113.316 155.6 112.289 154.714 111.391C154.582 111.256 154.445 111.121 154.303 110.995C152.773 109.586 150.914 108.586 148.895 108.086C146.877 107.586 144.766 107.603 142.756 108.136L142.746 108.141L142.669 108.161L142.687 108.247C142.763 108.65 142.874 109.045 143.017 109.428C143.055 109.532 143.099 109.631 143.142 109.73C143.159 109.776 143.182 109.816 143.203 109.862C143.203 109.862 143.2 109.865 143.205 109.865C143.205 109.867 143.208 109.87 143.208 109.872C143.256 109.966 143.302 110.063 143.352 110.154C143.248 110.055 143.149 109.954 143.053 109.849C142.959 109.753 142.873 109.651 142.786 109.55C142.49 109.205 142.223 108.836 141.986 108.448L141.946 108.379L141.875 108.407C140.917 108.739 140.003 109.187 139.153 109.74L139.062 109.801C138.413 110.227 137.682 110.512 136.916 110.637C136.15 110.762 135.367 110.725 134.616 110.527C133.433 110.222 132.199 110.167 130.993 110.364C129.788 110.561 128.636 111.006 127.611 111.672C126.933 112.115 126.319 112.65 125.789 113.262C125.743 113.315 125.697 113.371 125.651 113.424C125.555 113.541 125.464 113.66 125.375 113.782C124.42 115.058 123.835 116.571 123.681 118.157L123.676 118.215L123.724 118.248C124.583 118.837 125.555 119.241 126.578 119.436C125.935 119.526 125.285 119.542 124.638 119.485H124.636C124.343 119.46 124.051 119.42 123.762 119.363L123.709 119.352H123.707L123.641 119.34L123.651 119.462C123.727 121.013 124.215 122.516 125.065 123.816L125.09 123.851C125.1 123.864 125.108 123.878 125.116 123.892C125.476 124.443 125.776 125.031 126.009 125.646C126.603 127.175 126.734 128.845 126.385 130.447C125.991 132.161 126.122 133.954 126.761 135.593C127.401 137.231 128.519 138.639 129.97 139.633C131.245 140.51 132.73 141.031 134.273 141.144C134.484 141.161 134.697 141.172 134.911 141.172C136.132 141.175 137.34 140.924 138.457 140.433L138.498 140.417L138.508 140.372C138.723 139.678 139.025 139.014 139.407 138.397C139.282 138.883 139.219 139.384 139.219 139.887V140.054L139.364 139.971C139.488 139.897 139.615 139.818 139.729 139.745C140.415 139.297 141.036 138.757 141.575 138.14C141.786 137.896 141.999 137.66 142.223 137.424L142.225 137.422C142.659 136.96 143.119 136.508 143.596 136.076C144.612 135.164 145.698 134.335 146.846 133.596C147.993 132.859 149.192 132.207 150.433 131.646H150.436C150.575 131.58 150.718 131.516 150.857 131.455C151.476 131.186 152.071 130.867 152.637 130.501C152.657 130.488 152.675 130.478 152.693 130.465C155.147 128.858 156.952 126.432 157.785 123.619C158.618 120.807 158.426 117.789 157.243 115.105L157.243 115.105Z" fill="#2DA55F"/>
<path opacity="0.15" d="M126.805 134.052C126.736 134.361 126.683 134.673 126.648 134.987C126.175 133.494 126.106 131.901 126.449 130.373C126.502 130.139 126.541 129.902 126.573 129.664C127.042 131.08 127.122 132.595 126.805 134.052Z" fill="black"/>
<path opacity="0.15" d="M126.996 123.039C126.244 123.143 125.481 123.147 124.728 123.05C124.531 122.678 124.361 122.292 124.219 121.896C125.057 122.462 126.002 122.851 126.996 123.039Z" fill="black"/>
<path opacity="0.15" d="M124.665 119.403C124.387 120.113 124.203 120.855 124.116 121.613C123.884 120.892 123.748 120.143 123.709 119.387L123.703 119.265L123.823 119.288C124.101 119.34 124.382 119.379 124.665 119.403Z" fill="black"/>
<path opacity="0.15" d="M127.673 111.597C128.696 110.93 129.847 110.484 131.053 110.286C132.258 110.089 133.491 110.145 134.674 110.45C135.424 110.649 136.209 110.687 136.975 110.562C137.741 110.437 138.473 110.152 139.122 109.726L139.213 109.665C140.062 109.11 140.976 108.662 141.934 108.329L142.007 108.304L142.047 108.37C142.425 108.996 142.884 109.57 143.412 110.077C143.091 109.481 142.867 108.837 142.747 108.17L142.73 108.083L142.816 108.06C144.701 107.561 146.678 107.515 148.584 107.925C150.49 108.335 152.272 109.19 153.785 110.421C155.298 111.651 156.499 113.221 157.289 115.004C158.079 116.787 158.437 118.731 158.333 120.678C157.933 119.09 157.222 117.598 156.241 116.287C155.261 114.977 154.029 113.874 152.619 113.042C151.209 112.211 149.648 111.668 148.026 111.444C146.405 111.22 144.755 111.321 143.172 111.739L143.085 111.762L143.103 111.85C143.223 112.517 143.447 113.16 143.767 113.757C143.24 113.249 142.781 112.675 142.402 112.049L142.363 111.983L142.289 112.009C141.332 112.341 140.418 112.79 139.569 113.345L139.478 113.405C138.829 113.832 138.097 114.117 137.331 114.242C136.564 114.366 135.78 114.328 135.03 114.13C133.064 113.62 130.983 113.808 129.14 114.661C127.297 115.514 125.808 116.98 124.925 118.808C124.532 118.619 124.151 118.407 123.784 118.171L123.734 118.139L123.74 118.081C123.867 116.774 124.286 115.513 124.967 114.39C125.647 113.268 126.572 112.313 127.673 111.597Z" fill="black"/>
<path d="M222.065 46.7255L221.823 46.5655L221.648 46.794C220.292 48.501 219.214 50.4108 218.452 52.4532C218.557 50.1003 218.968 47.7711 219.676 45.5246L219.752 45.2885L219.533 45.1641C216.693 43.5555 213.666 42.3005 210.52 41.4269L210.178 41.3355C207.767 40.674 205.523 39.5118 203.591 37.9247C201.66 36.3376 200.085 34.3612 198.969 32.1244C196.375 26.991 192.277 22.7707 187.222 20.0267C182.167 17.2827 176.396 16.1455 170.678 16.7668H170.675C170.614 16.7719 170.551 16.7795 170.49 16.7871C170.386 16.7973 170.284 16.81 170.183 16.8227C169.975 16.8506 169.772 16.8785 169.568 16.909C169.396 16.9344 169.221 16.9623 169.048 16.9928C168.957 17.0055 168.868 17.0207 168.779 17.0385C168.69 17.0537 168.599 17.0689 168.51 17.0867H168.507C166.802 17.4092 165.131 17.8894 163.516 18.5212H163.513V18.5237L163.104 18.6837C162.683 18.8563 162.265 19.0391 161.85 19.2321C161.756 19.2752 161.665 19.3209 161.571 19.3641C161.546 19.3768 161.518 19.3895 161.492 19.4047C161.226 19.5316 160.962 19.6637 160.7 19.8033C160.662 19.8211 160.624 19.8414 160.586 19.8617L160.342 19.9912C159.806 20.2806 159.28 20.5878 158.763 20.9128C158.72 20.9382 158.679 20.9636 158.636 20.9915C158.59 21.022 158.542 21.0524 158.496 21.0829C158.468 21.0981 158.441 21.1184 158.413 21.1362C158.334 21.1844 158.258 21.2352 158.182 21.2885C158.029 21.3876 157.877 21.4891 157.727 21.5932C157.572 21.6973 157.42 21.8065 157.268 21.9156L157.115 22.0248L157.143 22.2127C157.169 22.3676 157.191 22.5224 157.219 22.6748C157.245 22.8271 157.27 22.9769 157.298 23.1267C157.341 23.378 157.389 23.6268 157.438 23.868C157.471 24.028 157.501 24.1854 157.537 24.3403C157.57 24.5002 157.605 24.6602 157.643 24.8201C157.717 25.1502 157.796 25.4701 157.879 25.7849C157.92 25.9423 157.963 26.0997 158.009 26.2546C158.034 26.3485 158.06 26.4424 158.088 26.5338C158.108 26.5973 158.128 26.6608 158.149 26.7243C158.154 26.7446 158.159 26.7674 158.166 26.7903C158.172 26.8118 158.179 26.833 158.187 26.8537C158.215 26.9477 158.243 27.0391 158.27 27.1279C158.286 27.1762 158.301 27.2244 158.319 27.2701C158.354 27.3793 158.392 27.491 158.43 27.5976C158.471 27.7195 158.514 27.8414 158.557 27.9607C158.567 27.9912 158.578 28.0191 158.588 28.0495C158.595 28.0724 158.603 28.0952 158.613 28.1181C158.623 28.1435 158.634 28.1714 158.644 28.1968C158.687 28.3111 158.73 28.4278 158.776 28.5421C158.791 28.5827 158.806 28.6259 158.824 28.6665C159.235 29.7008 159.741 30.6951 160.335 31.637C159.677 31.0733 159.044 30.4759 158.435 29.8445C157.496 28.8684 156.63 27.8237 155.846 26.7192C155.782 26.6329 155.719 26.544 155.66 26.4551C155.541 26.285 155.424 26.1149 155.31 25.9423C155.188 25.7646 155.071 25.5792 154.957 25.3964C154.881 25.2746 154.805 25.1502 154.731 25.0283C154.658 24.9115 154.589 24.7973 154.523 24.6805L154.325 24.3403H154.323V24.3428L154.043 24.617C153.932 24.7262 153.82 24.8353 153.711 24.9445C150.298 28.3779 147.827 32.6314 146.533 37.2961L146.495 37.4357L146.457 37.5804C146.383 37.8394 146.31 38.0908 146.231 38.3472V38.3497C146.155 38.6036 146.074 38.8575 145.987 39.1063C145.909 39.3424 145.827 39.576 145.741 39.8096C145.713 39.8883 145.683 39.967 145.65 40.0457C145.596 40.198 145.538 40.3478 145.48 40.5001C145.452 40.5687 145.424 40.6398 145.396 40.7083C145.327 40.8759 145.259 41.0435 145.19 41.2085C145.18 41.2339 145.167 41.2618 145.155 41.2872C145.134 41.338 145.111 41.3888 145.091 41.437C145.038 41.5589 144.982 41.6833 144.929 41.8051C144.891 41.8838 144.855 41.9651 144.82 42.0438C144.804 42.0793 144.787 42.1149 144.771 42.1504C144.677 42.3535 144.581 42.5541 144.479 42.7521C144.365 42.9857 144.248 43.2193 144.124 43.4478C144.015 43.6611 143.9 43.8692 143.781 44.0774C143.575 44.4456 143.36 44.8112 143.136 45.1666C143.05 45.3037 142.964 45.4408 142.875 45.5779C142.854 45.6109 142.834 45.6439 142.814 45.6744C142.74 45.7937 142.664 45.908 142.585 46.0247C142.532 46.1034 142.479 46.1822 142.425 46.2583C142.337 46.3954 142.243 46.5274 142.146 46.6569C142.121 46.6975 142.093 46.7356 142.065 46.7737C141.923 46.9717 141.781 47.1647 141.636 47.3576C141.631 47.3602 141.631 47.3627 141.628 47.3653C141.623 47.3653 141.623 47.3678 141.621 47.3703C141.557 47.4541 141.494 47.5379 141.428 47.6192C141.341 47.7385 141.247 47.8553 141.153 47.9695C141.001 48.1625 140.841 48.358 140.679 48.5484C140.674 48.5535 140.671 48.5585 140.666 48.5611C139.825 49.5494 138.913 50.476 137.939 51.3335C137.921 51.3488 137.909 51.364 137.891 51.3767C137.754 51.496 137.617 51.6153 137.475 51.7321C137.416 51.7804 137.358 51.8286 137.299 51.8768C137.203 51.9581 137.104 52.0393 137.007 52.113C136.996 52.1246 136.983 52.1348 136.969 52.1434C136.883 52.2145 136.799 52.2805 136.713 52.3465C136.609 52.4303 136.505 52.509 136.398 52.5877C135.895 52.9685 135.379 53.3282 134.849 53.6667C134.771 53.7201 134.687 53.7734 134.606 53.8242C134.557 53.8546 134.509 53.8851 134.463 53.9105C134.271 54.0298 134.078 54.1466 133.885 54.2583C133.692 54.3725 133.494 54.4817 133.298 54.5883C132.879 54.8168 132.465 55.0555 132.062 55.3043C131.859 55.4313 131.655 55.5582 131.455 55.6877C130.658 56.2056 129.89 56.7599 129.152 57.3506C128.414 57.9417 127.707 58.5696 127.032 59.2319C126.948 59.3132 126.865 59.397 126.781 59.4833C126.613 59.6483 126.451 59.8159 126.296 59.9834C126.047 60.2399 125.808 60.5039 125.572 60.7705C124.327 62.1832 123.225 63.7157 122.282 65.3455C121.808 66.1594 121.378 66.9975 120.992 67.8565C120.7 68.4988 120.434 69.1564 120.192 69.8216C120.033 70.2659 119.883 70.7144 119.743 71.1672C119.675 71.3931 119.609 71.6216 119.545 71.8501C119.329 72.6245 119.149 73.4064 119.002 74.1909C118.882 74.8206 118.786 75.4511 118.712 76.0824C118.674 76.3998 118.644 76.7171 118.616 77.0319C118.55 77.8057 118.517 78.5803 118.516 79.3556C118.511 81.6815 118.794 83.999 119.357 86.2557C119.482 86.7533 119.62 87.2484 119.771 87.7409C119.847 87.9872 119.928 88.2309 120.01 88.4746C120.215 89.084 120.443 89.6874 120.693 90.2848C120.842 90.6428 121 90.9983 121.165 91.3512C122.214 93.5947 123.552 95.691 125.146 97.5866C125.407 97.8989 125.677 98.2061 125.956 98.5082C125.958 98.5082 125.956 98.5108 125.956 98.5108C126.647 99.2643 127.378 99.9796 128.147 100.654H128.149C128.457 100.925 128.769 101.188 129.086 101.443C129.089 101.441 129.089 101.443 129.089 101.443C129.409 101.702 129.731 101.951 130.061 102.192C130.226 102.311 130.394 102.431 130.564 102.55C130.896 102.786 131.236 103.014 131.582 103.233H131.584C131.93 103.456 132.28 103.67 132.635 103.873C133.349 104.282 134.08 104.665 134.832 105.013L134.959 105.071L135.088 105.013C136.293 104.471 137.535 104.015 138.805 103.649C139.084 103.568 139.366 103.495 139.645 103.423C140.351 103.248 141.062 103.101 141.778 102.982C141.08 103.332 140.407 103.728 139.762 104.167C139.262 104.505 138.769 104.873 138.274 105.279C138.109 105.414 137.944 105.554 137.779 105.696L137.368 106.051L137.883 106.221C138.071 106.282 138.259 106.343 138.447 106.399C138.703 106.48 138.957 106.554 139.206 106.622C139.749 106.775 140.296 106.909 140.846 107.026C140.981 107.054 141.113 107.082 141.247 107.11C141.509 107.161 141.773 107.212 142.037 107.257C142.048 107.26 142.059 107.262 142.07 107.262C142.344 107.308 142.621 107.351 142.895 107.389C143.405 107.463 143.916 107.521 144.426 107.564C144.482 107.572 144.538 107.575 144.596 107.577C144.721 107.587 144.842 107.597 144.967 107.605C145.241 107.623 145.518 107.635 145.794 107.646C145.815 107.646 145.833 107.648 145.853 107.648C145.992 107.653 146.132 107.658 146.272 107.661C146.272 107.661 146.272 107.663 146.274 107.661C146.414 107.663 146.554 107.666 146.693 107.666H147.465C147.61 107.666 147.754 107.668 147.902 107.668C148.105 107.668 148.31 107.671 148.514 107.674C148.567 107.674 148.623 107.676 148.679 107.676C149.004 107.681 149.329 107.689 149.654 107.696C149.674 107.696 149.694 107.699 149.714 107.699C150.039 107.709 150.364 107.719 150.689 107.734C150.76 107.737 150.832 107.74 150.905 107.745C151.217 107.757 151.53 107.773 151.842 107.79C151.931 107.795 152.022 107.803 152.114 107.808C152.35 107.821 152.588 107.836 152.825 107.854C152.964 107.861 153.101 107.872 153.241 107.884C153.805 107.927 154.366 107.976 154.929 108.032C155.117 108.047 155.305 108.067 155.493 108.087C155.996 108.141 156.5 108.199 157.006 108.263C157.232 108.288 157.458 108.318 157.684 108.349C157.709 108.351 157.735 108.354 157.76 108.359C158.039 108.397 158.316 108.435 158.595 108.476C158.778 108.501 158.961 108.529 159.144 108.557C159.332 108.585 159.52 108.613 159.707 108.646C159.809 108.661 159.911 108.679 160.015 108.697C160.258 108.735 160.505 108.775 160.751 108.821C160.773 108.823 160.795 108.827 160.817 108.831C161.34 108.923 161.865 109.019 162.389 109.123C162.696 109.182 163 109.243 163.305 109.306C163.544 109.354 163.782 109.405 164.021 109.456C164.062 109.463 164.102 109.474 164.143 109.484C164.152 109.486 164.161 109.488 164.171 109.489C164.531 109.568 164.894 109.649 165.255 109.735C166.507 110.025 167.757 110.346 169.005 110.7C169.292 110.779 169.579 110.862 169.865 110.946C169.987 110.982 170.107 111.017 170.226 111.053C170.475 111.126 170.721 111.2 170.97 111.279C171.188 111.345 171.409 111.413 171.627 111.484C171.765 111.528 171.902 111.571 172.039 111.616C172.252 111.682 172.465 111.751 172.676 111.825C172.856 111.88 173.034 111.939 173.212 112.002C173.466 112.086 173.722 112.172 173.976 112.264C174.05 112.289 174.126 112.315 174.199 112.343C174.509 112.449 174.819 112.558 175.129 112.673C175.431 112.782 175.733 112.893 176.032 113.005C176.241 113.084 176.449 113.16 176.654 113.241C176.885 113.33 177.116 113.419 177.345 113.51C177.675 113.64 178.008 113.772 178.338 113.906C178.642 114.028 178.944 114.153 179.249 114.282C179.305 114.305 179.363 114.328 179.419 114.353C179.683 114.463 179.947 114.577 180.209 114.691C180.379 114.762 180.547 114.836 180.714 114.909C181.445 115.229 182.176 115.56 182.905 115.902H182.908C183.365 116.118 183.829 116.324 184.296 116.519C184.406 116.565 184.515 116.61 184.626 116.654C184.812 116.732 185 116.806 185.188 116.882C185.309 116.93 185.431 116.979 185.556 117.024C185.736 117.095 185.919 117.164 186.102 117.23C186.295 117.301 186.485 117.372 186.68 117.438C186.749 117.463 186.818 117.486 186.889 117.512C187.115 117.588 187.341 117.664 187.569 117.738C187.592 117.745 187.615 117.753 187.64 117.76C187.879 117.837 188.117 117.913 188.359 117.984C188.378 117.991 188.397 117.997 188.417 118.002C188.676 118.08 188.94 118.157 189.202 118.23C189.587 118.337 189.976 118.438 190.364 118.532C190.435 118.55 190.507 118.568 190.578 118.583C190.786 118.634 190.991 118.682 191.2 118.728C191.421 118.779 191.644 118.824 191.865 118.87C192.088 118.916 192.312 118.961 192.533 119.002C192.652 119.025 192.771 119.048 192.888 119.068L193.2 119.121C193.416 119.159 193.632 119.192 193.85 119.228C193.856 119.228 193.862 119.229 193.868 119.231C194.114 119.269 194.358 119.304 194.604 119.335C194.84 119.368 195.076 119.396 195.313 119.423C195.361 119.429 195.412 119.434 195.462 119.439C195.658 119.462 195.853 119.484 196.049 119.502C196.105 119.507 196.161 119.512 196.216 119.517C196.409 119.535 196.602 119.553 196.795 119.566C196.834 119.571 196.873 119.573 196.912 119.573C197.085 119.588 197.257 119.601 197.43 119.609C197.552 119.619 197.671 119.624 197.793 119.632C197.857 119.634 197.917 119.637 197.981 119.639C198.148 119.649 198.316 119.655 198.486 119.66C198.692 119.667 198.897 119.672 199.101 119.677C199.347 119.682 199.596 119.685 199.842 119.685H199.847C200.088 119.685 200.332 119.682 200.573 119.677H200.665L200.931 119.67C201.068 119.667 201.205 119.662 201.34 119.657C201.599 119.647 201.855 119.634 202.112 119.619C202.213 119.614 202.317 119.606 202.419 119.601C202.465 119.599 202.513 119.594 202.559 119.591C202.719 119.581 202.876 119.571 203.036 119.558C203.201 119.545 203.368 119.53 203.533 119.512C203.747 119.492 203.96 119.469 204.173 119.446C204.341 119.429 204.508 119.408 204.673 119.388C204.696 119.386 204.718 119.383 204.739 119.378C204.899 119.36 205.059 119.34 205.217 119.317C205.405 119.291 205.59 119.264 205.775 119.236C205.796 119.233 205.813 119.231 205.834 119.228C206.154 119.177 206.476 119.126 206.798 119.068C207.136 119.007 207.474 118.941 207.809 118.873C207.933 118.847 208.055 118.819 208.18 118.794C208.248 118.779 208.319 118.766 208.385 118.751C208.489 118.728 208.591 118.705 208.692 118.68C208.71 118.677 208.731 118.672 208.748 118.669C208.891 118.639 209.03 118.603 209.172 118.568C209.457 118.499 209.736 118.428 210.015 118.352C210.14 118.322 210.264 118.289 210.383 118.256C210.419 118.245 210.454 118.235 210.487 118.225C211.003 118.08 211.514 117.927 212.021 117.766C212.244 117.695 212.465 117.621 212.686 117.542C213.161 117.38 213.631 117.209 214.098 117.029C214.222 116.984 214.347 116.933 214.471 116.885C214.654 116.811 214.837 116.737 215.017 116.664C215.179 116.595 215.342 116.527 215.507 116.456C215.588 116.423 215.669 116.387 215.751 116.351C215.994 116.245 216.238 116.136 216.479 116.026C216.642 115.95 216.802 115.877 216.962 115.801C217.215 115.679 217.467 115.554 217.718 115.43C217.782 115.397 217.843 115.364 217.904 115.333C218.063 115.252 218.223 115.168 218.386 115.087C218.642 114.95 218.899 114.813 219.153 114.671C219.239 114.625 219.323 114.577 219.409 114.529C219.688 114.371 219.965 114.211 220.239 114.049C220.846 113.686 221.444 113.306 222.034 112.911C222.181 112.815 222.329 112.713 222.473 112.614C222.748 112.426 223.017 112.233 223.286 112.04C223.314 112.02 223.339 112 223.367 111.982C223.502 111.883 223.636 111.784 223.771 111.682C224.05 111.472 224.327 111.258 224.604 111.04C224.609 111.038 224.616 111.03 224.624 111.025C224.748 110.926 224.873 110.827 224.995 110.728C225.373 110.421 225.746 110.108 226.112 109.786C226.292 109.631 226.47 109.471 226.645 109.311C226.777 109.192 226.909 109.073 227.038 108.951C227.3 108.704 227.556 108.461 227.81 108.212C227.937 108.09 228.061 107.963 228.188 107.836C228.313 107.709 228.44 107.582 228.564 107.453C228.607 107.41 228.65 107.364 228.694 107.318C228.821 107.184 228.948 107.046 229.075 106.912C229.184 106.795 229.29 106.673 229.399 106.551C229.582 106.348 229.768 106.145 229.948 105.94C229.957 105.928 229.968 105.917 229.978 105.907C229.988 105.894 229.999 105.884 230.006 105.874H230.004C233.694 101.606 236.436 96.6036 238.048 91.197C239.66 85.7905 240.106 80.1032 239.355 74.5115C238.605 68.9199 236.675 63.5514 233.695 58.7613C230.714 53.9712 226.75 49.8688 222.065 46.7255L222.065 46.7255Z" fill="#2DA55F"/>
<g opacity="0.15">
<path d="M170.683 16.7646C171.189 18.5826 171.95 20.3195 172.944 21.9236C171.28 20.4941 169.793 18.8704 168.516 17.0873C169.233 16.9515 169.956 16.844 170.683 16.7646Z" fill="black"/>
<path d="M145.909 44.8793C144.03 45.9049 142.273 47.1399 140.672 48.5607C143.375 45.3638 145.351 41.617 146.463 37.5803C146.476 37.5318 146.49 37.483 146.503 37.4344L146.541 37.297C147.876 32.4791 150.467 28.1024 154.049 24.6145L154.331 24.3401L154.529 24.6792C155.627 26.5462 156.941 28.2775 158.444 29.8373C156.141 36.3352 151.66 41.7434 145.909 44.8793Z" fill="black"/>
<path d="M159.14 27.586L159.102 27.7234C159.089 27.772 159.076 27.8208 159.062 27.8693C158.988 28.1364 158.909 28.4016 158.828 28.6656C158.025 26.5853 157.461 24.4205 157.147 22.2128L157.117 22.0254L157.271 21.9154C159.203 20.5271 161.301 19.3865 163.517 18.52C161.528 21.256 160.045 24.3266 159.14 27.586Z" fill="black"/>
<path d="M133.303 54.5905C134.966 53.6803 136.522 52.5877 137.944 51.333C135.105 54.6383 133.07 58.556 131.998 62.7793C130.927 67.0025 130.848 71.4165 131.767 75.6754C132.687 79.9343 134.58 83.9225 137.299 87.3272C140.018 90.732 143.488 93.461 147.438 95.3004L147.566 95.3597L147.694 95.3018C149.828 94.338 152.077 93.6549 154.386 93.2697C152.945 94.0039 151.601 94.916 150.387 95.9846L149.976 96.3398L150.492 96.5099C150.936 96.657 151.381 96.7923 151.814 96.9124C154.355 97.6201 156.982 97.9715 159.619 97.9567C171.603 97.8799 183.68 100.65 195.514 106.191C197.544 107.14 199.649 107.918 201.807 108.517C211.215 111.137 221.259 110.194 230.015 105.871C225.078 111.58 218.623 115.772 211.399 117.96C204.175 120.147 196.479 120.24 189.204 118.228C187.045 117.629 184.94 116.851 182.911 115.902C171.077 110.362 159 107.591 147.016 107.668C144.378 107.683 141.751 107.331 139.211 106.624C138.778 106.504 138.333 106.368 137.888 106.221L137.373 106.051L137.784 105.696C138.998 104.627 140.342 103.715 141.783 102.981C139.474 103.366 137.224 104.049 135.091 105.013L134.963 105.071L134.834 105.012C130.091 102.804 126.055 99.3215 123.176 94.9532C120.296 90.5849 118.687 85.5025 118.529 80.273C118.37 75.0436 119.667 69.8729 122.276 65.3379C124.885 60.8029 128.703 57.0821 133.303 54.5905L133.303 54.5905Z" fill="black"/>
</g>
</svg>
